<svg width="40" height="40" viewBox="0 0 40 40" fill="none" xmlns="http://www.w3.org/2000/svg">
<path d="M26.3636 18.4334C29.0045 18.4334 31.1205 16.2894 31.1205 13.6334C31.1205 10.9774 29.0045 8.83337 26.3636 8.83337C23.7227 8.83337 21.5909 10.9774 21.5909 13.6334C21.5909 16.2894 23.7227 18.4334 26.3636 18.4334ZM13.6364 18.4334C16.2773 18.4334 18.3932 16.2894 18.3932 13.6334C18.3932 10.9774 16.2773 8.83337 13.6364 8.83337C10.9955 8.83337 8.86364 10.9774 8.86364 13.6334C8.86364 16.2894 10.9955 18.4334 13.6364 18.4334ZM13.6364 21.6334C9.92954 21.6334 2.5 23.5054 2.5 27.2334V31.2334H24.7727V27.2334C24.7727 23.5054 17.3432 21.6334 13.6364 21.6334ZM26.3636 21.6334C25.9023 21.6334 25.3773 21.6654 24.8205 21.7134C26.6659 23.0574 27.9545 24.8654 27.9545 27.2334V31.2334H37.5V27.2334C37.5 23.5054 30.0705 21.6334 26.3636 21.6334Z" fill="white"/>
</svg>
